<?xml version="1.0" encoding="iso-8859-1"?>
<!-- Generator: Adobe Illustrator 23.0.1, SVG Export Plug-In . SVG Version: 6.00 Build 0)  -->
<svg xmlns="http://www.w3.org/2000/svg" xmlns:xlink="http://www.w3.org/1999/xlink" version="1.1" id="Layer_1" x="0px" y="0px" viewBox="0 0 64 64" style="enable-background:new 0 0 64 64;" xml:space="preserve" width="64px" height="64px">
<g>
	<radialGradient id="SVGID_1__118991" cx="36.8333" cy="35.9167" r="26.0001" gradientUnits="userSpaceOnUse" spreadMethod="reflect">
		<stop offset="2.165098e-07" style="stop-color:#F4E09D"/>
		<stop offset="0.2262" style="stop-color:#F8E8B5"/>
		<stop offset="0.5129" style="stop-color:#FCF0CD"/>
		<stop offset="0.7783" style="stop-color:#FEF4DC"/>
		<stop offset="1" style="stop-color:#FFF6E1"/>
	</radialGradient>
	<path style="fill:url(#SVGID_1__118991);" d="M10,8L10,8c2.209,0,4-1.791,4-4v0c0-2.209-1.791-4-4-4h0C7.791,0,6,1.791,6,4v0   C6,6.209,7.791,8,10,8z"/>
	<radialGradient id="SVGID_2__118991" cx="31.4167" cy="29.9167" r="28.7704" gradientUnits="userSpaceOnUse" spreadMethod="reflect">
		<stop offset="2.165098e-07" style="stop-color:#F4E09D"/>
		<stop offset="0.2262" style="stop-color:#F8E8B5"/>
		<stop offset="0.5129" style="stop-color:#FCF0CD"/>
		<stop offset="0.7783" style="stop-color:#FEF4DC"/>
		<stop offset="1" style="stop-color:#FFF6E1"/>
	</radialGradient>
	<path style="fill:url(#SVGID_2__118991);" d="M7.5,64L7.5,64c1.933,0,3.5-1.567,3.5-3.5v0c0-1.933-1.567-3.5-3.5-3.5h0   C5.567,57,4,58.567,4,60.5v0C4,62.433,5.567,64,7.5,64z"/>
	<radialGradient id="SVGID_3__118991" cx="32" cy="32" r="32" gradientUnits="userSpaceOnUse" spreadMethod="reflect">
		<stop offset="2.165098e-07" style="stop-color:#F4E09D"/>
		<stop offset="0.2262" style="stop-color:#F8E8B5"/>
		<stop offset="0.5129" style="stop-color:#FCF0CD"/>
		<stop offset="0.7783" style="stop-color:#FEF4DC"/>
		<stop offset="1" style="stop-color:#FFF6E1"/>
	</radialGradient>
	<path style="fill:url(#SVGID_3__118991);" d="M62,20.5L62,20.5c0-2.485-2.015-4.5-4.5-4.5H49c-2.209,0-4-1.791-4-4v0c0-2.209,1.791-4,4-4   h2c2.209,0,4-1.791,4-4v0c0-2.209-1.791-4-4-4L20,0c-2.209,0-4,1.791-4,4v0c0,2.209,1.791,4,4,4h2c1.657,0,3,1.343,3,3v0   c0,1.657-1.343,3-3,3H7.5C5.567,14,4,15.567,4,17.5v0C4,19.433,5.567,21,7.5,21H9c1.657,0,3,1.343,3,3v0c0,1.657-1.343,3-3,3H5   c-2.761,0-5,2.239-5,5v0c0,2.761,2.239,5,5,5h2.5c1.933,0,3.5,1.567,3.5,3.5v0c0,1.933-1.567,3.5-3.5,3.5H6c-2.209,0-4,1.791-4,4v0   c0,2.209,1.791,4,4,4h11.5c1.381,0,2.5,1.119,2.5,2.5v0c0,1.381-1.119,2.5-2.5,2.5h0c-1.933,0-3.5,1.567-3.5,3.5v0   c0,1.933,1.567,3.5,3.5,3.5h30c1.933,0,3.5-1.567,3.5-3.5v0c0-1.933-1.567-3.5-3.5-3.5H47c-1.105,0-2-0.895-2-2v0   c0-1.105,0.895-2,2-2h13c2.209,0,4-1.791,4-4v0c0-2.209-1.791-4-4-4h-3.5c-1.381,0-2.5-1.119-2.5-2.5v0c0-1.381,1.119-2.5,2.5-2.5   H57c2.209,0,4-1.791,4-4v0c0-2.209-1.791-4-4-4h-4.5c-1.933,0-3.5-1.567-3.5-3.5v0c0-1.933,1.567-3.5,3.5-3.5h5   C59.985,25,62,22.985,62,20.5z"/>
</g>
<linearGradient id="SVGID_4__118991" gradientUnits="userSpaceOnUse" x1="32.5" y1="1.2293" x2="32.5" y2="64.4772" spreadMethod="reflect">
	<stop offset="0" style="stop-color:#A4A4A4"/>
	<stop offset="0.6301" style="stop-color:#7F7F7F"/>
	<stop offset="1" style="stop-color:#6F6F6F"/>
	<stop offset="1" style="stop-color:#6F6F6F"/>
</linearGradient>
<path style="fill:url(#SVGID_4__118991);" d="M14.5,28h36c1.933,0,3.5,1.567,3.5,3.5v0c0,1.933-1.567,3.5-3.5,3.5h-36  c-1.933,0-3.5-1.567-3.5-3.5v0C11,29.567,12.567,28,14.5,28z M11,16.5L11,16.5c0,1.933,1.567,3.5,3.5,3.5h36  c1.933,0,3.5-1.567,3.5-3.5v0c0-1.933-1.567-3.5-3.5-3.5h-36C12.567,13,11,14.567,11,16.5z M11,46.5L11,46.5  c0,1.933,1.567,3.5,3.5,3.5h36c1.933,0,3.5-1.567,3.5-3.5v0c0-1.933-1.567-3.5-3.5-3.5h-36C12.567,43,11,44.567,11,46.5z"/>
</svg>
